# xmcd
#
# Track frame offsets:
#	150
#	53622
#	97686
#	142036
#	200468
#	298489
#
# Disc length: 4280 seconds
#
# Revision: 1
# Processed by: cddbd v1.5.2PL0 Copyright (c) Steve Scherf et al.
# Submitted via: audiograbber 1.83.01
#
DISCID=5610b606
DTITLE=Grateful Dead - 79-11-29 Cleveland Public Hall, Cleveland OH
DYEAR=1900
DGENRE=
TTITLE0=Shakedown Street
TTITLE1=Samson and Delilah
TTITLE2=High Time
TTITLE3=Estimated Prophet
TTITLE4=Eyes Of The World
TTITLE5=Drums
EXTD=
EXTT0=
EXTT1=
EXTT2=
EXTT3=
EXTT4=
EXTT5=
PLAYORDER=
